<svg width="36" height="36" viewBox="0 0 36 36" fill="none" xmlns="http://www.w3.org/2000/svg">
<circle cx="17.6836" cy="17.5947" r="17.5" fill="white"/>
<path d="M24.3855 11.5517C23.2813 11.037 22.0858 10.6634 20.8405 10.4475C20.8295 10.4472 20.8187 10.4492 20.8086 10.4536C20.7986 10.4579 20.7896 10.4643 20.7824 10.4725C20.6329 10.7464 20.4586 11.1034 20.3423 11.3774C19.0215 11.1781 17.6782 11.1781 16.3573 11.3774C16.2411 11.0951 16.0667 10.7464 15.909 10.4725C15.9007 10.4559 15.8758 10.4475 15.8509 10.4475C14.6056 10.6634 13.4184 11.037 12.3059 11.5517C12.2976 11.5517 12.2893 11.56 12.281 11.5683C10.0228 14.9473 9.40014 18.2349 9.70732 21.4894C9.70732 21.506 9.71562 21.5226 9.73223 21.5309C11.2266 22.6268 12.6629 23.2909 14.0825 23.7309C14.1074 23.7392 14.1324 23.7309 14.1407 23.7143C14.4727 23.2577 14.7716 22.7762 15.029 22.2698C15.0456 22.2366 15.029 22.2034 14.9958 22.1951C14.5226 22.0124 14.0742 21.7966 13.6342 21.5475C13.601 21.5309 13.601 21.4811 13.6259 21.4562C13.7172 21.3897 13.8086 21.315 13.8999 21.2486C13.9165 21.232 13.9414 21.232 13.958 21.2403C16.8139 22.5437 19.894 22.5437 22.7167 21.2403C22.7333 21.232 22.7583 21.232 22.7749 21.2486C22.8662 21.3233 22.9575 21.3897 23.0488 21.4645C23.082 21.4894 23.082 21.5392 23.0405 21.5558C22.6088 21.8132 22.1522 22.0207 21.679 22.2034C21.6458 22.2117 21.6375 22.2532 21.6458 22.2781C21.9114 22.7845 22.2103 23.266 22.5341 23.7226C22.559 23.7309 22.5839 23.7392 22.6088 23.7309C24.0368 23.2909 25.473 22.6268 26.9674 21.5309C26.984 21.5226 26.9923 21.506 26.9923 21.4894C27.3576 17.7285 26.3863 14.4658 24.4187 11.5683C24.4104 11.56 24.4021 11.5517 24.3855 11.5517ZM15.4607 19.5052C14.6056 19.5052 13.8916 18.7165 13.8916 17.7451C13.8916 16.7738 14.589 15.9851 15.4607 15.9851C16.3407 15.9851 17.0381 16.7821 17.0298 17.7451C17.0298 18.7165 16.3324 19.5052 15.4607 19.5052ZM21.2473 19.5052C20.3922 19.5052 19.6782 18.7165 19.6782 17.7451C19.6782 16.7738 20.3755 15.9851 21.2473 15.9851C22.1273 15.9851 22.8247 16.7821 22.8164 17.7451C22.8164 18.7165 22.1273 19.5052 21.2473 19.5052Z" fill="url(#paint0_linear_0_42)"/>
<defs>
<linearGradient id="paint0_linear_0_42" x1="18.3464" y1="9.24996" x2="18.3464" y2="22.3463" gradientUnits="userSpaceOnUse">
<stop stop-color="#FFBA3B"/>
<stop offset="0.5315" stop-color="#FFA53B"/>
<stop offset="1" stop-color="#FF983B"/>
</linearGradient>
</defs>
</svg>
