<svg width="30" height="30" viewBox="0 0 30 30" fill="none" xmlns="http://www.w3.org/2000/svg">
<circle cx="14.9309" cy="14.9309" r="14.9309" fill="url(#paint0_linear_0_2306)"/>
<path d="M20.6483 9.77512C19.7062 9.33596 18.6862 9.01721 17.6237 8.83304C17.6144 8.83274 17.6051 8.83449 17.5965 8.83816C17.588 8.84183 17.5803 8.84734 17.5741 8.85429C17.4466 9.08804 17.2979 9.39262 17.1987 9.62637C16.0717 9.45637 14.9257 9.45637 13.7987 9.62637C13.6995 9.38554 13.5508 9.08804 13.4162 8.85429C13.4091 8.84012 13.3879 8.83304 13.3666 8.83304C12.3041 9.01721 11.2912 9.33596 10.342 9.77512C10.3349 9.77512 10.3279 9.78221 10.3208 9.78929C8.39412 12.6722 7.86287 15.4772 8.12495 18.2539C8.12495 18.268 8.13203 18.2822 8.1462 18.2893C9.4212 19.2243 10.6466 19.791 11.8579 20.1664C11.8791 20.1735 11.9004 20.1664 11.9074 20.1522C12.1908 19.7626 12.4458 19.3518 12.6654 18.9197C12.6795 18.8914 12.6654 18.863 12.637 18.856C12.2333 18.7001 11.8508 18.516 11.4754 18.3035C11.447 18.2893 11.447 18.2468 11.4683 18.2255C11.5462 18.1689 11.6241 18.1051 11.702 18.0485C11.7162 18.0343 11.7374 18.0343 11.7516 18.0414C14.1883 19.1535 16.8162 19.1535 19.2245 18.0414C19.2387 18.0343 19.2599 18.0343 19.2741 18.0485C19.352 18.1122 19.4299 18.1689 19.5079 18.2326C19.5362 18.2539 19.5362 18.2964 19.5008 18.3105C19.1324 18.5301 18.7429 18.7072 18.3391 18.863C18.3108 18.8701 18.3037 18.9055 18.3108 18.9268C18.5374 19.3589 18.7924 19.7697 19.0687 20.1593C19.0899 20.1664 19.1112 20.1735 19.1324 20.1664C20.3508 19.791 21.5762 19.2243 22.8512 18.2893C22.8654 18.2822 22.8724 18.268 22.8724 18.2539C23.1841 15.0451 22.3554 12.2614 20.6766 9.78929C20.6695 9.78221 20.6624 9.77512 20.6483 9.77512ZM13.0337 16.561C12.3041 16.561 11.6949 15.888 11.6949 15.0593C11.6949 14.2305 12.2899 13.5576 13.0337 13.5576C13.7845 13.5576 14.3795 14.2376 14.3724 15.0593C14.3724 15.888 13.7774 16.561 13.0337 16.561ZM17.9708 16.561C17.2412 16.561 16.632 15.888 16.632 15.0593C16.632 14.2305 17.227 13.5576 17.9708 13.5576C18.7216 13.5576 19.3166 14.2376 19.3095 15.0593C19.3095 15.888 18.7216 16.561 17.9708 16.561Z" fill="white"/>
<defs>
<linearGradient id="paint0_linear_0_2306" x1="14.9228" y1="-2.69145" x2="14.9228" y2="26.7422" gradientUnits="userSpaceOnUse">
<stop stop-color="#FFBA3B"/>
<stop offset="0.5315" stop-color="#FFA53B"/>
<stop offset="1" stop-color="#FF983B"/>
</linearGradient>
</defs>
</svg>
