<svg width="30" height="30" viewBox="0 0 30 30" fill="none" xmlns="http://www.w3.org/2000/svg">
<circle cx="14.9769" cy="14.9309" r="14.9309" fill="url(#paint0_linear_0_2310)"/>
<path d="M21.8506 10.6202C21.3426 10.8394 20.7898 10.9971 20.2203 11.0585C20.8115 10.7073 21.2543 10.1524 21.4654 9.49796C20.9107 9.82798 20.3029 10.0594 19.6692 10.1819C19.4043 9.89876 19.0839 9.67317 18.728 9.51922C18.3721 9.36527 17.9884 9.28626 17.6006 9.28712C16.0317 9.28712 14.77 10.5588 14.77 12.1193C14.77 12.3385 14.7966 12.5576 14.8398 12.7685C12.4906 12.6456 10.3955 11.5233 9.00265 9.80508C8.74885 10.2386 8.61586 10.7322 8.61749 11.2345C8.61749 12.2173 9.1172 13.0839 9.87921 13.5936C9.43015 13.5759 8.9916 13.4524 8.59923 13.2333V13.2682C8.59923 14.6444 9.57208 15.785 10.8687 16.0473C10.6252 16.1105 10.3748 16.1429 10.1233 16.1436C9.93898 16.1436 9.76466 16.1253 9.58868 16.1004C9.94728 17.2227 10.9915 18.0378 12.235 18.0644C11.2621 18.8264 10.0436 19.2746 8.72042 19.2746C8.48302 19.2746 8.26388 19.2663 8.03644 19.2398C9.29152 20.0449 10.7807 20.5098 12.3844 20.5098C17.5906 20.5098 20.4395 16.1967 20.4395 12.453C20.4395 12.3302 20.4395 12.2073 20.4312 12.0845C20.9823 11.6811 21.4654 11.1814 21.8506 10.6202Z" fill="white"/>
<defs>
<linearGradient id="paint0_linear_0_2310" x1="14.9688" y1="-2.69145" x2="14.9688" y2="26.7422" gradientUnits="userSpaceOnUse">
<stop stop-color="#FFBA3B"/>
<stop offset="0.5315" stop-color="#FFA53B"/>
<stop offset="1" stop-color="#FF983B"/>
</linearGradient>
</defs>
</svg>
