<svg width="36" height="36" viewBox="0 0 36 36" fill="none" xmlns="http://www.w3.org/2000/svg">
<circle cx="17.6836" cy="17.5947" r="17.5" fill="white"/>
<path d="M25.7393 12.5425C25.1439 12.7993 24.4959 12.9842 23.8285 13.0562C24.5214 12.6445 25.0403 11.9941 25.2879 11.2271C24.6376 11.6139 23.9253 11.8851 23.1825 12.0288C22.872 11.6969 22.4966 11.4325 22.0794 11.252C21.6623 11.0716 21.2125 10.979 20.758 10.98C18.9192 10.98 17.4404 12.4705 17.4404 14.2995C17.4404 14.5564 17.4716 14.8132 17.5221 15.0604C14.7688 14.9164 12.3132 13.601 10.6807 11.5871C10.3832 12.0952 10.2273 12.6737 10.2293 13.2624C10.2293 14.4143 10.8149 15.4301 11.7081 16.0274C11.1817 16.0067 10.6677 15.862 10.2078 15.6052V15.646C10.2078 17.2591 11.3481 18.5959 12.8678 18.9033C12.5824 18.9774 12.2889 19.0154 11.9941 19.0162C11.7781 19.0162 11.5738 18.9948 11.3675 18.9656C11.7878 20.281 13.0118 21.2364 14.4692 21.2675C13.3289 22.1606 11.9007 22.686 10.3499 22.686C10.0716 22.686 9.81479 22.6763 9.54822 22.6451C11.0192 23.5888 12.7646 24.1337 14.6443 24.1337C20.7464 24.1337 24.0854 19.0784 24.0854 14.6906C24.0854 14.5467 24.0854 14.4027 24.0756 14.2587C24.7216 13.7858 25.2879 13.2002 25.7393 12.5425Z" fill="url(#paint0_linear_0_46)"/>
<defs>
<linearGradient id="paint0_linear_0_46" x1="17.6394" y1="9.79444" x2="17.6394" y2="22.7595" gradientUnits="userSpaceOnUse">
<stop stop-color="#FFBA3B"/>
<stop offset="0.5315" stop-color="#FFA53B"/>
<stop offset="1" stop-color="#FF983B"/>
</linearGradient>
</defs>
</svg>
